<svg width="20" height="25" viewBox="0 0 20 25" fill="none" xmlns="http://www.w3.org/2000/svg">
<mask id="path-1-inside-1_3_28" fill="white">
<path fill-rule="evenodd" clip-rule="evenodd" d="M4 2C4 0.89543 4.89543 0 6 0H14C15.1046 0 16 0.895431 16 2V5C16 6.10457 15.1046 7 14 7L14 11L19.038 18.837C20.7494 21.499 18.838 25 15.6733 25H4.32666C1.162 25 -0.749367 21.499 0.961948 18.837L6 11L6 7C4.89543 7 4 6.10457 4 5V2Z"/>
</mask>
<path d="M14 7V5H12L12 7L14 7ZM14 11L12 11L12 11.5874L12.3176 12.0815L14 11ZM19.038 18.837L20.7204 17.7555L20.7204 17.7555L19.038 18.837ZM0.961948 18.837L-0.720408 17.7555L-0.720409 17.7555L0.961948 18.837ZM6 11L7.68236 12.0815L8 11.5874L8 11L6 11ZM6 7L8 7L8 5H6V7ZM6 -2C3.79086 -2 2 -0.209139 2 2H6V2V-2ZM14 -2H6V2H14V-2ZM18 2C18 -0.20914 16.2091 -2 14 -2V2H14H18ZM18 5V2H14V5H18ZM14 9C16.2091 9 18 7.20914 18 5H14H14V9ZM16 11L16 7L12 7L12 11L16 11ZM12.3176 12.0815L17.3557 19.9185L20.7204 17.7555L15.6824 9.91848L12.3176 12.0815ZM17.3557 19.9185C18.2114 21.2495 17.2557 23 15.6733 23V27C20.4203 27 23.2874 21.7485 20.7204 17.7555L17.3557 19.9185ZM15.6733 23H4.32666V27H15.6733V23ZM4.32666 23C2.74433 23 1.78865 21.2495 2.64431 19.9185L-0.720409 17.7555C-3.28738 21.7485 -0.420336 27 4.32666 27V23ZM2.64431 19.9185L7.68236 12.0815L4.31764 9.91848L-0.720408 17.7555L2.64431 19.9185ZM4 7L4 11L8 11L8 7L4 7ZM2 5C2 7.20914 3.79086 9 6 9V5H6H2ZM2 2V5H6V2H2Z" fill="url(#paint0_linear_3_28)" mask="url(#path-1-inside-1_3_28)"/>
<path d="M9 14H11L15.0048 20.2296C15.2187 20.5624 14.9798 21 14.5842 21H5.41583C5.02025 21 4.78133 20.5624 4.99524 20.2296L9 14Z" fill="url(#paint1_linear_3_28)"/>
<defs>
<linearGradient id="paint0_linear_3_28" x1="6.1433" y1="13" x2="25.5078" y2="13" gradientUnits="userSpaceOnUse">
<stop stop-color="#FF4F4F"/>
<stop offset="0.857193" stop-color="#FFA4A4"/>
<stop offset="1" stop-color="white"/>
</linearGradient>
<linearGradient id="paint1_linear_3_28" x1="4" y1="21" x2="16" y2="21" gradientUnits="userSpaceOnUse">
<stop stop-color="#FF5050"/>
<stop offset="1" stop-color="#FF8C8C"/>
</linearGradient>
</defs>
</svg>
